<mxfile host="app.diagrams.net" modified="2023-12-15T03:50:59.969Z" agent="Mozilla/5.0 (Windows NT 10.0; Win64; x64) AppleWebKit/537.36 (KHTML, like Gecko) Chrome/120.0.0.0 Safari/537.36" etag="g67Bunm9Mz6_Iy4WCmeO" version="22.1.8" type="github">
  <diagram name="Page-1" id="8N-fU3ui_tHNkEygwKlp">
    <mxGraphModel dx="993" dy="471" grid="1" gridSize="10" guides="1" tooltips="1" connect="1" arrows="1" fold="1" page="1" pageScale="1" pageWidth="850" pageHeight="1100" math="0" shadow="0">
      <root>
        <mxCell id="0" />
        <mxCell id="1" parent="0" />
        <mxCell id="sucacokmUpg4z13c3Hur-10" value="" style="edgeStyle=orthogonalEdgeStyle;rounded=0;orthogonalLoop=1;jettySize=auto;html=1;" parent="1" source="sucacokmUpg4z13c3Hur-2" target="sucacokmUpg4z13c3Hur-4" edge="1">
          <mxGeometry relative="1" as="geometry" />
        </mxCell>
        <mxCell id="sucacokmUpg4z13c3Hur-2" value="&lt;font style=&quot;font-size: 18px;&quot;&gt;&lt;b&gt;Start&lt;/b&gt;&lt;/font&gt;" style="strokeWidth=2;html=1;shape=mxgraph.flowchart.terminator;whiteSpace=wrap;" parent="1" vertex="1">
          <mxGeometry x="340" y="30" width="135" height="60" as="geometry" />
        </mxCell>
        <mxCell id="sucacokmUpg4z13c3Hur-11" value="" style="edgeStyle=orthogonalEdgeStyle;rounded=0;orthogonalLoop=1;jettySize=auto;html=1;" parent="1" source="sucacokmUpg4z13c3Hur-4" target="sucacokmUpg4z13c3Hur-5" edge="1">
          <mxGeometry relative="1" as="geometry" />
        </mxCell>
        <mxCell id="sucacokmUpg4z13c3Hur-4" value="&lt;b&gt;&lt;font style=&quot;font-size: 18px;&quot;&gt;Result = 0&lt;br&gt;User_Input = 0&lt;/font&gt;&lt;/b&gt;" style="rounded=0;whiteSpace=wrap;html=1;" parent="1" vertex="1">
          <mxGeometry x="336.25" y="200" width="142.5" height="60" as="geometry" />
        </mxCell>
        <mxCell id="sucacokmUpg4z13c3Hur-5" value="&lt;font style=&quot;font-size: 18px;&quot;&gt;&lt;b&gt;Enter A Number(User_Input):&amp;nbsp;&lt;/b&gt;&lt;/font&gt;" style="shape=parallelogram;perimeter=parallelogramPerimeter;whiteSpace=wrap;html=1;fixedSize=1;" parent="1" vertex="1">
          <mxGeometry x="288" y="356" width="240" height="60" as="geometry" />
        </mxCell>
        <mxCell id="sucacokmUpg4z13c3Hur-13" value="" style="edgeStyle=orthogonalEdgeStyle;rounded=0;orthogonalLoop=1;jettySize=auto;html=1;exitX=0.486;exitY=1.007;exitDx=0;exitDy=0;exitPerimeter=0;" parent="1" source="sucacokmUpg4z13c3Hur-5" edge="1">
          <mxGeometry relative="1" as="geometry">
            <mxPoint x="405" y="420" as="sourcePoint" />
            <mxPoint x="406" y="480" as="targetPoint" />
            <Array as="points">
              <mxPoint x="405" y="420" />
              <mxPoint x="405" y="420" />
              <mxPoint x="405" y="480" />
            </Array>
          </mxGeometry>
        </mxCell>
        <mxCell id="sucacokmUpg4z13c3Hur-15" value="" style="edgeStyle=orthogonalEdgeStyle;rounded=0;orthogonalLoop=1;jettySize=auto;html=1;" parent="1" source="sucacokmUpg4z13c3Hur-12" target="sucacokmUpg4z13c3Hur-14" edge="1">
          <mxGeometry relative="1" as="geometry" />
        </mxCell>
        <mxCell id="sucacokmUpg4z13c3Hur-12" value="&lt;font style=&quot;font-size: 18px;&quot;&gt;Check the Number&amp;nbsp;&lt;/font&gt;" style="rounded=0;whiteSpace=wrap;html=1;" parent="1" vertex="1">
          <mxGeometry x="322" y="480" width="170" height="60" as="geometry" />
        </mxCell>
        <mxCell id="sucacokmUpg4z13c3Hur-14" value="&lt;b&gt;&lt;font style=&quot;font-size: 14px;&quot;&gt;If&lt;br&gt;Number&amp;nbsp; is less than (0)&lt;br&gt;or grater than (101)&lt;/font&gt;&lt;/b&gt;" style="rhombus;whiteSpace=wrap;html=1;rounded=0;" parent="1" vertex="1">
          <mxGeometry x="264" y="601" width="287" height="138" as="geometry" />
        </mxCell>
        <mxCell id="sucacokmUpg4z13c3Hur-18" value="" style="endArrow=classic;html=1;rounded=0;edgeStyle=orthogonalEdgeStyle;exitX=1;exitY=0.5;exitDx=0;exitDy=0;" parent="1" source="sucacokmUpg4z13c3Hur-14" edge="1">
          <mxGeometry relative="1" as="geometry">
            <mxPoint x="587" y="669.41" as="sourcePoint" />
            <mxPoint x="757" y="669.41" as="targetPoint" />
          </mxGeometry>
        </mxCell>
        <mxCell id="sucacokmUpg4z13c3Hur-19" value="Yes" style="edgeLabel;resizable=0;html=1;align=center;verticalAlign=middle;" parent="sucacokmUpg4z13c3Hur-18" connectable="0" vertex="1">
          <mxGeometry relative="1" as="geometry" />
        </mxCell>
        <mxCell id="sucacokmUpg4z13c3Hur-28" value="&lt;font style=&quot;font-size: 14px;&quot;&gt;Yes&lt;/font&gt;" style="edgeLabel;html=1;align=center;verticalAlign=middle;resizable=0;points=[];" parent="sucacokmUpg4z13c3Hur-18" vertex="1" connectable="0">
          <mxGeometry x="0.0133" relative="1" as="geometry">
            <mxPoint as="offset" />
          </mxGeometry>
        </mxCell>
        <mxCell id="sucacokmUpg4z13c3Hur-21" value="&lt;b&gt;&lt;font style=&quot;font-size: 22px;&quot;&gt;Result=-1&lt;/font&gt;&lt;/b&gt;" style="shape=parallelogram;perimeter=parallelogramPerimeter;whiteSpace=wrap;html=1;fixedSize=1;" parent="1" vertex="1">
          <mxGeometry x="750" y="640" width="120" height="60" as="geometry" />
        </mxCell>
        <mxCell id="sucacokmUpg4z13c3Hur-24" value="" style="endArrow=classic;html=1;rounded=0;edgeStyle=orthogonalEdgeStyle;" parent="1" edge="1">
          <mxGeometry relative="1" as="geometry">
            <mxPoint x="407" y="740" as="sourcePoint" />
            <mxPoint x="407" y="870" as="targetPoint" />
          </mxGeometry>
        </mxCell>
        <mxCell id="sucacokmUpg4z13c3Hur-25" value="No" style="edgeLabel;resizable=0;html=1;align=center;verticalAlign=middle;" parent="sucacokmUpg4z13c3Hur-24" connectable="0" vertex="1">
          <mxGeometry relative="1" as="geometry" />
        </mxCell>
        <mxCell id="sucacokmUpg4z13c3Hur-27" value="&lt;b style=&quot;border-color: var(--border-color);&quot;&gt;&lt;font style=&quot;border-color: var(--border-color); font-size: 14px;&quot;&gt;Else if&lt;br&gt;Number&amp;nbsp; is Grater than or Equal to(0)&lt;br&gt;And Less than or equal to (5)&lt;/font&gt;&lt;/b&gt;" style="strokeWidth=2;html=1;shape=mxgraph.flowchart.decision;whiteSpace=wrap;" parent="1" vertex="1">
          <mxGeometry x="243" y="870" width="330" height="140" as="geometry" />
        </mxCell>
        <mxCell id="sucacokmUpg4z13c3Hur-32" value="" style="endArrow=classic;html=1;rounded=0;edgeStyle=orthogonalEdgeStyle;exitX=1;exitY=0.5;exitDx=0;exitDy=0;" parent="1" edge="1">
          <mxGeometry relative="1" as="geometry">
            <mxPoint x="575" y="939.97" as="sourcePoint" />
            <mxPoint x="781" y="939.38" as="targetPoint" />
          </mxGeometry>
        </mxCell>
        <mxCell id="sucacokmUpg4z13c3Hur-33" value="Yes" style="edgeLabel;resizable=0;html=1;align=center;verticalAlign=middle;" parent="sucacokmUpg4z13c3Hur-32" connectable="0" vertex="1">
          <mxGeometry relative="1" as="geometry" />
        </mxCell>
        <mxCell id="sucacokmUpg4z13c3Hur-34" value="&lt;font style=&quot;font-size: 14px;&quot;&gt;Yes&lt;/font&gt;" style="edgeLabel;html=1;align=center;verticalAlign=middle;resizable=0;points=[];" parent="sucacokmUpg4z13c3Hur-32" vertex="1" connectable="0">
          <mxGeometry x="0.0133" relative="1" as="geometry">
            <mxPoint as="offset" />
          </mxGeometry>
        </mxCell>
        <mxCell id="sucacokmUpg4z13c3Hur-35" value="&lt;b&gt;&lt;font style=&quot;font-size: 22px;&quot;&gt;Result=0&lt;/font&gt;&lt;/b&gt;" style="shape=parallelogram;perimeter=parallelogramPerimeter;whiteSpace=wrap;html=1;fixedSize=1;" parent="1" vertex="1">
          <mxGeometry x="771" y="910" width="120" height="60" as="geometry" />
        </mxCell>
        <mxCell id="sucacokmUpg4z13c3Hur-36" value="" style="endArrow=classic;html=1;rounded=0;edgeStyle=orthogonalEdgeStyle;" parent="1" edge="1">
          <mxGeometry relative="1" as="geometry">
            <mxPoint x="406.33" y="1010" as="sourcePoint" />
            <mxPoint x="406.33" y="1140" as="targetPoint" />
          </mxGeometry>
        </mxCell>
        <mxCell id="sucacokmUpg4z13c3Hur-37" value="No" style="edgeLabel;resizable=0;html=1;align=center;verticalAlign=middle;" parent="sucacokmUpg4z13c3Hur-36" connectable="0" vertex="1">
          <mxGeometry relative="1" as="geometry" />
        </mxCell>
        <mxCell id="sucacokmUpg4z13c3Hur-38" value="&lt;b style=&quot;border-color: var(--border-color);&quot;&gt;&lt;font style=&quot;border-color: var(--border-color); font-size: 14px;&quot;&gt;else if&lt;br&gt;Number&amp;nbsp; is Grater than or Equal to(6)&lt;br&gt;And Less than or equal to (12)&lt;/font&gt;&lt;/b&gt;" style="strokeWidth=2;html=1;shape=mxgraph.flowchart.decision;whiteSpace=wrap;" parent="1" vertex="1">
          <mxGeometry x="242" y="1140" width="330" height="140" as="geometry" />
        </mxCell>
        <mxCell id="sucacokmUpg4z13c3Hur-39" value="" style="endArrow=classic;html=1;rounded=0;edgeStyle=orthogonalEdgeStyle;exitX=1;exitY=0.5;exitDx=0;exitDy=0;" parent="1" edge="1">
          <mxGeometry relative="1" as="geometry">
            <mxPoint x="565" y="1209.96" as="sourcePoint" />
            <mxPoint x="771" y="1209.37" as="targetPoint" />
          </mxGeometry>
        </mxCell>
        <mxCell id="sucacokmUpg4z13c3Hur-40" value="Yes" style="edgeLabel;resizable=0;html=1;align=center;verticalAlign=middle;" parent="sucacokmUpg4z13c3Hur-39" connectable="0" vertex="1">
          <mxGeometry relative="1" as="geometry" />
        </mxCell>
        <mxCell id="sucacokmUpg4z13c3Hur-41" value="&lt;font style=&quot;font-size: 14px;&quot;&gt;Yes&lt;/font&gt;" style="edgeLabel;html=1;align=center;verticalAlign=middle;resizable=0;points=[];" parent="sucacokmUpg4z13c3Hur-39" vertex="1" connectable="0">
          <mxGeometry x="0.0133" relative="1" as="geometry">
            <mxPoint as="offset" />
          </mxGeometry>
        </mxCell>
        <mxCell id="sucacokmUpg4z13c3Hur-42" value="&lt;b&gt;&lt;font style=&quot;font-size: 22px;&quot;&gt;Result=1&lt;/font&gt;&lt;/b&gt;" style="shape=parallelogram;perimeter=parallelogramPerimeter;whiteSpace=wrap;html=1;fixedSize=1;" parent="1" vertex="1">
          <mxGeometry x="763" y="1180" width="120" height="60" as="geometry" />
        </mxCell>
        <mxCell id="sucacokmUpg4z13c3Hur-43" value="" style="endArrow=classic;html=1;rounded=0;edgeStyle=orthogonalEdgeStyle;" parent="1" edge="1">
          <mxGeometry relative="1" as="geometry">
            <mxPoint x="406.33" y="1280" as="sourcePoint" />
            <mxPoint x="406.33" y="1410" as="targetPoint" />
          </mxGeometry>
        </mxCell>
        <mxCell id="sucacokmUpg4z13c3Hur-44" value="No" style="edgeLabel;resizable=0;html=1;align=center;verticalAlign=middle;" parent="sucacokmUpg4z13c3Hur-43" connectable="0" vertex="1">
          <mxGeometry relative="1" as="geometry" />
        </mxCell>
        <mxCell id="sucacokmUpg4z13c3Hur-45" value="&lt;b style=&quot;border-color: var(--border-color);&quot;&gt;&lt;font style=&quot;border-color: var(--border-color); font-size: 14px;&quot;&gt;Else if&lt;br&gt;Number&amp;nbsp; is Grater than or Equal to(13)&lt;br&gt;And Less than or equal to (19)&lt;/font&gt;&lt;/b&gt;" style="strokeWidth=2;html=1;shape=mxgraph.flowchart.decision;whiteSpace=wrap;" parent="1" vertex="1">
          <mxGeometry x="242" y="1413" width="330" height="140" as="geometry" />
        </mxCell>
        <mxCell id="sucacokmUpg4z13c3Hur-46" value="" style="endArrow=classic;html=1;rounded=0;edgeStyle=orthogonalEdgeStyle;exitX=1;exitY=0.5;exitDx=0;exitDy=0;" parent="1" edge="1">
          <mxGeometry relative="1" as="geometry">
            <mxPoint x="565" y="1479.96" as="sourcePoint" />
            <mxPoint x="771" y="1479.37" as="targetPoint" />
          </mxGeometry>
        </mxCell>
        <mxCell id="sucacokmUpg4z13c3Hur-47" value="Yes" style="edgeLabel;resizable=0;html=1;align=center;verticalAlign=middle;" parent="sucacokmUpg4z13c3Hur-46" connectable="0" vertex="1">
          <mxGeometry relative="1" as="geometry" />
        </mxCell>
        <mxCell id="sucacokmUpg4z13c3Hur-48" value="&lt;font style=&quot;font-size: 14px;&quot;&gt;Yes&lt;/font&gt;" style="edgeLabel;html=1;align=center;verticalAlign=middle;resizable=0;points=[];" parent="sucacokmUpg4z13c3Hur-46" vertex="1" connectable="0">
          <mxGeometry x="0.0133" relative="1" as="geometry">
            <mxPoint as="offset" />
          </mxGeometry>
        </mxCell>
        <mxCell id="sucacokmUpg4z13c3Hur-49" value="&lt;b&gt;&lt;font style=&quot;font-size: 22px;&quot;&gt;Result=2&lt;/font&gt;&lt;/b&gt;" style="shape=parallelogram;perimeter=parallelogramPerimeter;whiteSpace=wrap;html=1;fixedSize=1;" parent="1" vertex="1">
          <mxGeometry x="764" y="1450" width="120" height="60" as="geometry" />
        </mxCell>
        <mxCell id="sucacokmUpg4z13c3Hur-50" value="" style="endArrow=classic;html=1;rounded=0;edgeStyle=orthogonalEdgeStyle;" parent="1" edge="1">
          <mxGeometry relative="1" as="geometry">
            <mxPoint x="406.33" y="1550" as="sourcePoint" />
            <mxPoint x="406.33" y="1680" as="targetPoint" />
          </mxGeometry>
        </mxCell>
        <mxCell id="sucacokmUpg4z13c3Hur-51" value="No" style="edgeLabel;resizable=0;html=1;align=center;verticalAlign=middle;" parent="sucacokmUpg4z13c3Hur-50" connectable="0" vertex="1">
          <mxGeometry relative="1" as="geometry" />
        </mxCell>
        <mxCell id="sucacokmUpg4z13c3Hur-52" value="&lt;b style=&quot;border-color: var(--border-color);&quot;&gt;&lt;font style=&quot;border-color: var(--border-color); font-size: 14px;&quot;&gt;Else if&lt;br&gt;Number&amp;nbsp; is Grater than or Equal to(20)&lt;br&gt;And Less than or equal to (50)&lt;/font&gt;&lt;/b&gt;" style="strokeWidth=2;html=1;shape=mxgraph.flowchart.decision;whiteSpace=wrap;" parent="1" vertex="1">
          <mxGeometry x="242" y="1680" width="330" height="140" as="geometry" />
        </mxCell>
        <mxCell id="sucacokmUpg4z13c3Hur-53" value="" style="endArrow=classic;html=1;rounded=0;edgeStyle=orthogonalEdgeStyle;exitX=1;exitY=0.5;exitDx=0;exitDy=0;" parent="1" edge="1">
          <mxGeometry relative="1" as="geometry">
            <mxPoint x="565" y="1749.96" as="sourcePoint" />
            <mxPoint x="771" y="1749.37" as="targetPoint" />
          </mxGeometry>
        </mxCell>
        <mxCell id="sucacokmUpg4z13c3Hur-54" value="Yes" style="edgeLabel;resizable=0;html=1;align=center;verticalAlign=middle;" parent="sucacokmUpg4z13c3Hur-53" connectable="0" vertex="1">
          <mxGeometry relative="1" as="geometry" />
        </mxCell>
        <mxCell id="sucacokmUpg4z13c3Hur-55" value="&lt;font style=&quot;font-size: 14px;&quot;&gt;Yes&lt;/font&gt;" style="edgeLabel;html=1;align=center;verticalAlign=middle;resizable=0;points=[];" parent="sucacokmUpg4z13c3Hur-53" vertex="1" connectable="0">
          <mxGeometry x="0.0133" relative="1" as="geometry">
            <mxPoint as="offset" />
          </mxGeometry>
        </mxCell>
        <mxCell id="sucacokmUpg4z13c3Hur-56" value="&lt;b&gt;&lt;font style=&quot;font-size: 22px;&quot;&gt;Result=3&lt;/font&gt;&lt;/b&gt;" style="shape=parallelogram;perimeter=parallelogramPerimeter;whiteSpace=wrap;html=1;fixedSize=1;" parent="1" vertex="1">
          <mxGeometry x="764" y="1720" width="120" height="60" as="geometry" />
        </mxCell>
        <mxCell id="sucacokmUpg4z13c3Hur-57" value="" style="endArrow=classic;html=1;rounded=0;edgeStyle=orthogonalEdgeStyle;" parent="1" edge="1">
          <mxGeometry relative="1" as="geometry">
            <mxPoint x="406.33" y="1820" as="sourcePoint" />
            <mxPoint x="406.33" y="1950" as="targetPoint" />
          </mxGeometry>
        </mxCell>
        <mxCell id="sucacokmUpg4z13c3Hur-58" value="No" style="edgeLabel;resizable=0;html=1;align=center;verticalAlign=middle;" parent="sucacokmUpg4z13c3Hur-57" connectable="0" vertex="1">
          <mxGeometry relative="1" as="geometry" />
        </mxCell>
        <mxCell id="sucacokmUpg4z13c3Hur-59" value="&lt;b style=&quot;border-color: var(--border-color);&quot;&gt;&lt;font style=&quot;border-color: var(--border-color); font-size: 14px;&quot;&gt;Else if&lt;br&gt;Number&amp;nbsp; is Grater than or Equal to(51)&lt;br&gt;And Less than or equal to (60)&lt;/font&gt;&lt;/b&gt;" style="strokeWidth=2;html=1;shape=mxgraph.flowchart.decision;whiteSpace=wrap;" parent="1" vertex="1">
          <mxGeometry x="242" y="1950" width="330" height="140" as="geometry" />
        </mxCell>
        <mxCell id="sucacokmUpg4z13c3Hur-60" value="" style="endArrow=classic;html=1;rounded=0;edgeStyle=orthogonalEdgeStyle;exitX=1;exitY=0.5;exitDx=0;exitDy=0;" parent="1" edge="1">
          <mxGeometry relative="1" as="geometry">
            <mxPoint x="565" y="2019.96" as="sourcePoint" />
            <mxPoint x="771" y="2019.37" as="targetPoint" />
          </mxGeometry>
        </mxCell>
        <mxCell id="sucacokmUpg4z13c3Hur-61" value="Yes" style="edgeLabel;resizable=0;html=1;align=center;verticalAlign=middle;" parent="sucacokmUpg4z13c3Hur-60" connectable="0" vertex="1">
          <mxGeometry relative="1" as="geometry" />
        </mxCell>
        <mxCell id="sucacokmUpg4z13c3Hur-62" value="&lt;font style=&quot;font-size: 14px;&quot;&gt;Yes&lt;/font&gt;" style="edgeLabel;html=1;align=center;verticalAlign=middle;resizable=0;points=[];" parent="sucacokmUpg4z13c3Hur-60" vertex="1" connectable="0">
          <mxGeometry x="0.0133" relative="1" as="geometry">
            <mxPoint as="offset" />
          </mxGeometry>
        </mxCell>
        <mxCell id="sucacokmUpg4z13c3Hur-63" value="&lt;b&gt;&lt;font style=&quot;font-size: 22px;&quot;&gt;Result=4&lt;/font&gt;&lt;/b&gt;" style="shape=parallelogram;perimeter=parallelogramPerimeter;whiteSpace=wrap;html=1;fixedSize=1;" parent="1" vertex="1">
          <mxGeometry x="764" y="1990" width="120" height="60" as="geometry" />
        </mxCell>
        <mxCell id="sucacokmUpg4z13c3Hur-64" value="" style="endArrow=classic;html=1;rounded=0;edgeStyle=orthogonalEdgeStyle;" parent="1" edge="1">
          <mxGeometry relative="1" as="geometry">
            <mxPoint x="406.33" y="2090" as="sourcePoint" />
            <mxPoint x="406.33" y="2220" as="targetPoint" />
          </mxGeometry>
        </mxCell>
        <mxCell id="sucacokmUpg4z13c3Hur-65" value="No" style="edgeLabel;resizable=0;html=1;align=center;verticalAlign=middle;" parent="sucacokmUpg4z13c3Hur-64" connectable="0" vertex="1">
          <mxGeometry relative="1" as="geometry" />
        </mxCell>
        <mxCell id="sucacokmUpg4z13c3Hur-66" value="&lt;b style=&quot;border-color: var(--border-color);&quot;&gt;&lt;font style=&quot;border-color: var(--border-color); font-size: 14px;&quot;&gt;Else if&lt;br&gt;Number&amp;nbsp; is Grater than or Equal to(61)&lt;br&gt;And Less than or equal to (101)&lt;/font&gt;&lt;/b&gt;" style="strokeWidth=2;html=1;shape=mxgraph.flowchart.decision;whiteSpace=wrap;" parent="1" vertex="1">
          <mxGeometry x="242" y="2220" width="330" height="140" as="geometry" />
        </mxCell>
        <mxCell id="sucacokmUpg4z13c3Hur-67" value="" style="endArrow=classic;html=1;rounded=0;edgeStyle=orthogonalEdgeStyle;exitX=1;exitY=0.5;exitDx=0;exitDy=0;" parent="1" edge="1">
          <mxGeometry relative="1" as="geometry">
            <mxPoint x="565" y="2289.96" as="sourcePoint" />
            <mxPoint x="771" y="2289.37" as="targetPoint" />
          </mxGeometry>
        </mxCell>
        <mxCell id="sucacokmUpg4z13c3Hur-68" value="Yes" style="edgeLabel;resizable=0;html=1;align=center;verticalAlign=middle;" parent="sucacokmUpg4z13c3Hur-67" connectable="0" vertex="1">
          <mxGeometry relative="1" as="geometry" />
        </mxCell>
        <mxCell id="sucacokmUpg4z13c3Hur-69" value="&lt;font style=&quot;font-size: 14px;&quot;&gt;Yes&lt;/font&gt;" style="edgeLabel;html=1;align=center;verticalAlign=middle;resizable=0;points=[];" parent="sucacokmUpg4z13c3Hur-67" vertex="1" connectable="0">
          <mxGeometry x="0.0133" relative="1" as="geometry">
            <mxPoint as="offset" />
          </mxGeometry>
        </mxCell>
        <mxCell id="sucacokmUpg4z13c3Hur-70" value="&lt;b&gt;&lt;font style=&quot;font-size: 22px;&quot;&gt;Result=5&lt;/font&gt;&lt;/b&gt;" style="shape=parallelogram;perimeter=parallelogramPerimeter;whiteSpace=wrap;html=1;fixedSize=1;" parent="1" vertex="1">
          <mxGeometry x="764" y="2260" width="120" height="60" as="geometry" />
        </mxCell>
        <mxCell id="sucacokmUpg4z13c3Hur-71" value="" style="endArrow=classic;html=1;rounded=0;edgeStyle=orthogonalEdgeStyle;" parent="1" edge="1">
          <mxGeometry relative="1" as="geometry">
            <mxPoint x="407.33" y="2360" as="sourcePoint" />
            <mxPoint x="407" y="2632" as="targetPoint" />
          </mxGeometry>
        </mxCell>
        <mxCell id="sucacokmUpg4z13c3Hur-72" value="No" style="edgeLabel;resizable=0;html=1;align=center;verticalAlign=middle;" parent="sucacokmUpg4z13c3Hur-71" connectable="0" vertex="1">
          <mxGeometry relative="1" as="geometry" />
        </mxCell>
        <mxCell id="sucacokmUpg4z13c3Hur-78" value="&lt;font style=&quot;font-size: 18px;&quot;&gt;&lt;b&gt;End&lt;/b&gt;&lt;/font&gt;" style="strokeWidth=2;html=1;shape=mxgraph.flowchart.terminator;whiteSpace=wrap;" parent="1" vertex="1">
          <mxGeometry x="339.5" y="2632" width="135" height="60" as="geometry" />
        </mxCell>
        <mxCell id="sucacokmUpg4z13c3Hur-80" value="" style="endArrow=none;html=1;rounded=0;edgeStyle=orthogonalEdgeStyle;" parent="1" source="sucacokmUpg4z13c3Hur-21" edge="1">
          <mxGeometry width="50" height="50" relative="1" as="geometry">
            <mxPoint x="891.0024561403509" y="670.0526315789475" as="sourcePoint" />
            <mxPoint x="951.02" y="2660.8695652173915" as="targetPoint" />
          </mxGeometry>
        </mxCell>
        <mxCell id="sucacokmUpg4z13c3Hur-85" value="" style="endArrow=none;html=1;rounded=0;edgeStyle=orthogonalEdgeStyle;" parent="1" edge="1">
          <mxGeometry width="50" height="50" relative="1" as="geometry">
            <mxPoint x="883" y="939.47" as="sourcePoint" />
            <mxPoint x="950" y="939" as="targetPoint" />
          </mxGeometry>
        </mxCell>
        <mxCell id="sucacokmUpg4z13c3Hur-86" value="" style="endArrow=none;html=1;rounded=0;edgeStyle=orthogonalEdgeStyle;exitX=1;exitY=0.5;exitDx=0;exitDy=0;" parent="1" source="sucacokmUpg4z13c3Hur-42" edge="1">
          <mxGeometry width="50" height="50" relative="1" as="geometry">
            <mxPoint x="883" y="1209.97" as="sourcePoint" />
            <mxPoint x="950" y="1209.5" as="targetPoint" />
          </mxGeometry>
        </mxCell>
        <mxCell id="sucacokmUpg4z13c3Hur-87" value="" style="endArrow=none;html=1;rounded=0;edgeStyle=orthogonalEdgeStyle;exitX=1;exitY=0.5;exitDx=0;exitDy=0;" parent="1" source="sucacokmUpg4z13c3Hur-49" edge="1">
          <mxGeometry width="50" height="50" relative="1" as="geometry">
            <mxPoint x="883" y="1479.99" as="sourcePoint" />
            <mxPoint x="950" y="1479" as="targetPoint" />
          </mxGeometry>
        </mxCell>
        <mxCell id="sucacokmUpg4z13c3Hur-88" value="" style="endArrow=none;html=1;rounded=0;edgeStyle=orthogonalEdgeStyle;" parent="1" edge="1">
          <mxGeometry width="50" height="50" relative="1" as="geometry">
            <mxPoint x="873" y="1752" as="sourcePoint" />
            <mxPoint x="950" y="1752" as="targetPoint" />
          </mxGeometry>
        </mxCell>
        <mxCell id="sucacokmUpg4z13c3Hur-89" value="" style="endArrow=none;html=1;rounded=0;edgeStyle=orthogonalEdgeStyle;" parent="1" edge="1">
          <mxGeometry width="50" height="50" relative="1" as="geometry">
            <mxPoint x="875" y="2019.83" as="sourcePoint" />
            <mxPoint x="952" y="2019.83" as="targetPoint" />
          </mxGeometry>
        </mxCell>
        <mxCell id="sucacokmUpg4z13c3Hur-90" value="" style="endArrow=none;html=1;rounded=0;edgeStyle=orthogonalEdgeStyle;" parent="1" edge="1">
          <mxGeometry width="50" height="50" relative="1" as="geometry">
            <mxPoint x="875" y="2288.83" as="sourcePoint" />
            <mxPoint x="952" y="2288.83" as="targetPoint" />
          </mxGeometry>
        </mxCell>
        <mxCell id="sucacokmUpg4z13c3Hur-92" value="" style="endArrow=classic;html=1;rounded=0;edgeStyle=orthogonalEdgeStyle;" parent="1" edge="1">
          <mxGeometry width="50" height="50" relative="1" as="geometry">
            <mxPoint x="950" y="2660" as="sourcePoint" />
            <mxPoint x="480" y="2660" as="targetPoint" />
          </mxGeometry>
        </mxCell>
      </root>
    </mxGraphModel>
  </diagram>
</mxfile>
